<svg width="19" height="14" viewBox="0 0 19 14" fill="none" xmlns="http://www.w3.org/2000/svg">
<path d="M1.98769 -1.30845e-06L17.0123 5.04436e-09C18.1085 1.00873e-07 19 0.906316 19 2.01895L19 11.9811C19 13.0937 18.1085 14 17.0123 14L1.98769 14C0.891538 14 4.36861e-07 13.0937 5.3413e-07 11.9811L1.40504e-06 2.01895C1.50231e-06 0.906314 0.89154 -1.40428e-06 1.98769 -1.30845e-06ZM5.52462 7L0.79654 3.22737L0.796539 11.6568L5.52462 6.99263L5.52462 7ZM17.0123 0.810527L1.98769 0.810525C1.33 0.810525 0.79654 1.35579 0.79654 2.01895L0.79654 2.20316L8.44039 8.30421C9.01769 8.76105 9.82154 8.76105 10.3988 8.30421L18.2035 2.20316L18.2035 2.02632C18.2035 1.35579 17.67 0.817895 17.0123 0.817895L17.0123 0.810527ZM13.3365 7.0221L18.2035 11.6789L18.2035 3.22L13.3365 7.0221ZM1.98769 13.1895L17.0123 13.1895C17.4288 13.1895 17.8088 12.9684 18.0281 12.6147L12.7008 7.52316L10.8885 8.93789C10.0262 9.62316 8.81308 9.62316 7.95077 8.93789L6.14577 7.50105L0.964616 12.6147C1.18385 12.9758 1.56385 13.1968 1.98038 13.1968L1.98769 13.1895Z" fill="black"/>
</svg>
